<?xml version="1.0" standalone="no"?>
<!DOCTYPE svg PUBLIC "-//W3C//DTD SVG 20010904//EN"
 "http://www.w3.org/TR/2001/REC-SVG-20010904/DTD/svg10.dtd">
<svg version="1.0" xmlns="http://www.w3.org/2000/svg"
 width="400.000000pt" height="400.000000pt" viewBox="0 0 400.000000 400.000000"
 preserveAspectRatio="xMidYMid meet">
<metadata>
Created by potrace 1.11, written by Peter Selinger 2001-2013
</metadata>
<g transform="translate(0.000000,400.000000) scale(0.100000,-0.100000)"
fill="#000000" stroke="none">
<path d="M1381 3105 c-130 -29 -220 -66 -321 -135 -180 -123 -315 -350 -339
-570 -4 -38 -9 -71 -12 -74 -2 -2 -38 -9 -79 -15 -176 -24 -291 -82 -420 -211
-89 -89 -140 -174 -186 -310 -30 -87 -27 -292 5 -385 88 -259 262 -424 526
-498 l80 -22 1365 0 1365 0 80 23 c101 28 216 82 275 129 108 85 206 224 246
347 24 71 27 97 27 216 1 120 -2 144 -26 215 -91 276 -328 464 -627 499 -54 7
-56 8 -80 53 -69 130 -209 263 -346 329 -51 24 -127 53 -170 64 -135 35 -332
24 -457 -25 -54 -21 -59 -20 -90 29 -64 101 -225 236 -343 286 -151 65 -329
86 -473 55z m300 -90 c74 -16 219 -78 267 -115 65 -50 158 -150 199 -212 24
-38 51 -68 60 -68 8 0 55 13 104 30 147 49 274 55 421 21 186 -43 368 -183
458 -353 42 -79 53 -88 108 -88 179 -1 387 -112 493 -262 64 -91 77 -120 99
-211 77 -320 -90 -629 -401 -744 l-74 -28 -1415 0 -1415 0 -74 27 c-213 79
-362 248 -407 461 -48 228 30 457 206 604 113 94 269 153 408 153 36 0 64 5
69 13 6 6 13 50 16 97 9 145 45 252 123 372 101 152 280 270 469 308 68 13
210 11 286 -5z"/>
<path d="M1306 2464 c-14 -14 -16 -83 -16 -609 l0 -594 22 -15 c20 -14 92 -16
583 -16 491 0 563 2 583 16 l22 15 0 530 0 530 -72 80 -72 79 -517 0 c-457 0
-519 -2 -533 -16z m214 -156 c0 -108 3 -135 17 -150 15 -17 39 -18 353 -18
411 0 373 -17 378 171 l4 129 36 -1 c33 0 44 -8 94 -67 l58 -66 0 -163 0 -163
-565 0 -565 0 0 230 0 230 95 0 95 0 0 -132z m120 2 l0 -130 -40 0 -40 0 0
130 0 130 40 0 40 0 0 -130z m350 46 c0 -46 3 -91 6 -100 7 -19 94 -22 112 -4
8 8 12 45 12 100 l0 88 55 0 55 0 0 -114 c0 -63 -3 -121 -6 -130 -5 -14 -39
-16 -275 -16 l-269 0 0 130 0 130 155 0 155 0 0 -84z m468 -628 l2 -208 -565
0 -565 0 0 210 0 210 563 -2 562 -3 3 -207z m0 -350 l-3 -103 -562 -3 -563 -2
0 105 0 105 565 0 566 0 -3 -102z"/>
<path d="M1520 1730 l0 -100 69 0 c58 0 74 4 96 23 22 19 26 30 27 77 0 47 -4
58 -27 77 -22 19 -38 23 -96 23 l-69 0 0 -100z m121 26 c17 -37 4 -76 -26 -76
-23 0 -25 3 -25 50 0 44 3 50 20 50 12 0 25 -10 31 -24z"/>
<path d="M1780 1730 l0 -100 35 0 35 0 0 100 0 100 -35 0 -35 0 0 -100z"/>
<path d="M1910 1730 l0 -100 35 0 c33 0 35 2 35 35 0 33 2 35 35 35 31 0 35 3
35 25 0 22 -4 25 -35 25 -24 0 -35 5 -35 15 0 11 12 15 45 15 41 0 45 2 45 25
0 25 -1 25 -80 25 l-80 0 0 -100z"/>
<path d="M2130 1730 l0 -100 35 0 c33 0 35 2 35 34 0 32 3 35 33 38 24 2 32 8
32 23 0 15 -8 21 -32 23 -50 5 -44 32 7 32 36 0 40 3 40 25 0 24 -2 25 -75 25
l-75 0 0 -100z"/>
</g>
</svg>
